<svg data-name="Ebene 2" xmlns="http://www.w3.org/2000/svg" viewBox="0 0 848.48 722.27">
<path d="M296 86.74a4.42 4.42 0 006.14 1c95.45-69.14 181.53-44.61 221.56 8.09 40.81 53.72 41.38 145-52.59 219.71a4.42 4.42 0 00-.74 6.17l22.27 28.83a4.13 4.13 0 005.83.73c51.78-41 84.12-90.87 93.63-144.44 8.84-49.85-2.73-98.94-32.57-138.22C530 29.67 486.4 5.63 436.86.87 383.74-4.24 328 13.27 275.31 51.54a4.45 4.45 0 00-1 6.26zM847.74 448.1c-6.32-74-52.48-139.72-120.47-171.43-36.46-17-77.78-23.38-119.47-18.44a4.21 4.21 0 00-3.44 2.7A218.27 218.27 0 01584 301.24a4.2 4.2 0 004.54 6.36c42-10.25 83.22-7.16 119.73 9.86 53.42 24.91 89.73 76.44 94.63 134.47 5.86 68.63-31 134.23-103.75 184.75-2.22 1.47-72.82 47.13-182.89 16.86a4.21 4.21 0 00-5.14 2.89L501 691.59a4.2 4.2 0 002.9 5.21 323.65 323.65 0 0086.52 12.11c81.38 0 131.4-33.19 134.14-35l.17-.12c44.6-30.94 77.86-67.26 98.86-108 19.17-37.28 27.54-77.97 24.15-117.69z"/><path d="M380.91 385.18a4 4 0 00-5.53-.75L101.27 592.78a4 4 0 01-6.1-4.5l152.92-418.54a3.94 3.94 0 016.83-1.05l356.17 462.78a4 4 0 005.53.72L646 609.56a4 4 0 00.72-5.54l-406-527.58a3.94 3.94 0 00-6.83 1.06L.26 717a3.94 3.94 0 006.09 4.49l396.26-301.24a4 4 0 00.76-5.53z"/>
</svg>